<svg width="989" height="781.43" xmlns="http://www.w3.org/2000/svg">
 <defs>
  <linearGradient y2="0.000686" x2="0.453366" y1="1.004329" x1="0.528656" id="a6110406-8b9c-48da-9b9b-78691cfdbd93">
   <stop stop-opacity="0.25" stop-color="gray" offset="0"/>
   <stop stop-opacity="0.12" stop-color="gray" offset="0.54"/>
   <stop stop-opacity="0.1" stop-color="gray" offset="1"/>
  </linearGradient>
 </defs>
 <title>timeline</title>
 <g>
  <title>background</title>
  <rect fill="none" id="canvas_background" height="613.71" width="1088.08" y="-1" x="-1"/>
 </g>
 <g>
  <title>Layer 1</title>
  <path id="svg_1" fill="#f2f2f2" d="m490.5,203.940001c45.59,-8 98.57,-6.61 155.7,0c-11.59,-65.73 -12.12,-130.11 0,-192.93l-155.7,0a543.76,543.76 0 0 0 0,192.93z"/>
  <rect id="svg_2" fill="#3f3d56" transform="rotate(-180 1233.6199951171875,77.05000305175783) " height="17.77" width="54.16" y="136.330003" x="1876.099995"/>
  <path id="svg_3" opacity="0.1" d="m369.3,584.870001c45.59,-8 98.57,-6.61 155.7,0c-11.59,-65.73 -12.12,-130.11 0,-192.93l-155.7,0a543.76,543.76 0 0 0 0,192.93z"/>
  <path id="svg_4" fill="#f2f2f2" d="m362.3,575.870001c45.59,-8 98.57,-6.61 155.7,0c-11.59,-65.73 -12.12,-130.11 0,-192.93l-155.7,0a543.76,543.76 0 0 0 0,192.93z"/>
  <rect id="svg_5" fill="#3f3d56" transform="rotate(-180 977.1799926757812,820.9199829101561) " height="17.77" width="54.16" y="1252.139983" x="1491.439993"/>
  <path id="svg_6" stroke-width="2" stroke-miterlimit="10" stroke="#3f3d56" fill="none" d="m228.5,260.940001s60.39,-170.81 194.93,-172.32"/>
  <path id="svg_7" fill="#3f3d56" d="m435.5,88.940001c-5.73,2 -12.85,5.41 -17.31,9.12l3.66,-9.43l-3.22,-9.59c4.28,3.91 11.24,7.68 16.87,9.9z"/>
  <path id="svg_8" stroke-width="2" stroke-miterlimit="10" stroke="#3f3d56" fill="none" d="m233.5,325.940001s-5.46,137.44 73.06,156.15"/>
  <path id="svg_9" fill="#3f3d56" d="m318.5,483.940001c-5.95,1.16 -13.48,3.57 -18.41,6.62l4.93,-8.83l-1.86,-9.94c3.7,4.46 10.07,9.15 15.34,12.15z"/>
  <path id="svg_10" stroke-width="2" stroke-miterlimit="10" stroke="#3f3d56" fill="none" d="m249.5,280.940001s424.62,-70.78 497.49,16.78"/>
  <path id="svg_11" fill="#3f3d56" d="m753.5,307.940001c-4.9,-3.57 -11.79,-7.46 -17.37,-9l9.82,-2.39l6,-8.13c-0.73,5.76 0.17,13.62 1.55,19.52z"/>
  <g id="svg_12" opacity="0.1">
   <ellipse id="svg_13" fill="#669100" ry="33" rx="494.5" cy="748.43" cx="494.5"/>
  </g>
  <path id="svg_14" opacity="0.1" d="m928.76,502.460001c-40.39,22.6 -80.61,57.11 -120.74,98.3c-32.52,-58.28 -72.74,-108.54 -121.81,-149.61l120.74,-98.3a543.88,543.88 0 0 1 121.81,149.61z"/>
  <path id="svg_15" fill="#f2f2f2" d="m930.76,494.460001c-40.39,22.6 -80.61,57.11 -120.74,98.3c-32.52,-58.28 -72.74,-108.54 -121.81,-149.61l120.74,-98.3a543.88,543.88 0 0 1 121.81,149.61z"/>
  <rect id="svg_16" fill="#3f3d56" transform="rotate(-39.150001525878906 -196.72000122070315,582.02001953125) " height="17.77" width="54.16" y="1022.05002" x="632.289999"/>
  <rect id="svg_17" fill="#669100" transform="rotate(-39.150001525878906 677.6599731445312,1120.280029296875)" height="13" width="96" y="1113.779998" x="629.660003"/>
  <path id="svg_18" fill="url(#a6110406-8b9c-48da-9b9b-78691cfdbd93)" d="m938.65,735.720001a9.78,9.78 0 0 0 -2.17,-2.42c-4.37,-4.12 -6.4,-10.19 -7.48,-16.12s-1.39,-12 -3.12,-17.82a59.18,59.18 0 0 0 -3.52,-8.67c-1,-2.13 -2.26,-6.33 -4.09,-7.82a2.83,2.83 0 0 0 -1.26,-0.62a14.71,14.71 0 0 0 -3.62,-4.81c-2.86,-2.59 -6.35,-4.65 -8.26,-8a18,18 0 0 0 -1.93,-3.3c-1.29,-1.42 -3.33,-2 -4.52,-3.5c-1.55,-1.94 -1.2,-4.71 -1,-7.19s0,-5.43 -2.14,-6.72c-1.28,-0.79 -2.93,-0.72 -4.26,-1.41c-2,-1 -2.79,-3.53 -2.75,-5.78s0.74,-4.44 0.92,-6.68c0.56,-7.16 -4.16,-14.28 -2.34,-21.22c0.69,-2.63 2.27,-4.92 3.44,-7.36a16.1,16.1 0 0 0 1,-2.54a35.35,35.35 0 0 0 9.74,2.34c-5.51,-12.35 -4.11,-26.72 -6.68,-40l0.33,-0.46a20.78,20.78 0 0 0 4.22,-11.85c0,-5 -2.31,-9.57 -3.35,-14.4c-0.89,-4.12 -0.85,-8.41 -2,-12.46a37.65,37.65 0 0 0 -3.16,-7.22q-1.87,-3.46 -3.93,-6.82q-1.92,-6.36 -3.85,-12.72c-1.8,-6 -3.65,-12 -7.15,-17.14c-1.28,-1.89 -1.67,-5.7 -3.64,-6.85a8.81,8.81 0 0 0 -5.2,-0.9c-2.78,-1.56 -5.22,-3.81 -5.57,-6.89a6.65,6.65 0 0 1 0.2,-2l0.34,0c4.4,-0.41 6.63,-4.29 8.92,-7.68c3.7,-5.51 2.29,-12.95 0,-19.21a13.08,13.08 0 0 0 -3,-5.29c-3.21,-3 -8.29,-2.33 -12.43,-3.78a40.15,40.15 0 0 0 -4.11,-1.55c-2.75,-0.65 -5.63,0.25 -8.15,1.52s-4.87,2.91 -7.51,3.92s-5.9,1.79 -6.55,4.5a5,5 0 0 0 0.22,2.73a10.2,10.2 0 0 0 3.09,4.45a17.82,17.82 0 0 0 10.87,24.83c0.76,1.21 1.47,2.45 2.12,3.73c1.16,2.24 2.14,4.88 1.74,7.28a22.35,22.35 0 0 0 -2,2.44c-2.87,4 -4.5,8.7 -6,13.37a141.37,141.37 0 0 0 -4.83,18.28c-2.44,5.18 -5.42,10.14 -7.19,15.59a35.2,35.2 0 0 1 -9.38,-1.25l-8.44,-1.92c-2.94,-0.66 -6,-1.39 -8.3,-3.32c-1.22,-1 -2.17,-2.33 -3.41,-3.33s-3.73,-2.15 -5.09,-1.33a4,4 0 0 0 -0.69,0.53c-1.24,-2.51 -4.28,3.89 -5.72,1.52c-2.06,-3.41 -9.29,0.54 -13.19,-0.1a9.25,9.25 0 0 0 -6.79,1.57c-2.28,1.63 -3.71,5 -2,7.28a12.51,12.51 0 0 0 1.39,1.43a28.59,28.59 0 0 1 3.09,4.28c3.08,4.43 10.17,0.52 15.55,1.54c-0.12,0.34 3.77,-8.09 3.65,-7.74c-0.71,2.07 -2.22,4.59 -1.84,6.75l37.54,12.85a22.86,22.86 0 0 0 7.56,1.66a12.71,12.71 0 0 0 3,-0.39l0,1.92l0,0.07c0.1,13.19 -2,26.3 -2.39,39.48c-0.07,2.4 0,5 1.52,6.88c1.7,2.06 4.72,2.46 7.35,2a16.65,16.65 0 0 0 1.86,-0.41a69.19,69.19 0 0 1 1.92,10.1l2.49,17.76a27.09,27.09 0 0 1 0.39,5.54c-0.29,4.18 -2.5,7.94 -4.1,11.81s-2.55,8.49 -0.45,12.11c0.66,1.12 1.57,2.08 2.16,3.24a13.1,13.1 0 0 1 1,5.67q0.23,8.1 0.44,16.18a1.89,1.89 0 0 0 -1.26,0.26c-2.08,1.61 -1.85,9.33 -2,11.72c-0.16,4 0,8.08 -0.22,12.12a72.32,72.32 0 0 1 -2.68,16.13a10.29,10.29 0 0 1 -2.29,4.61a9.86,9.86 0 0 1 -4.07,2.11a46.48,46.48 0 0 1 -15.41,2.09c-2.11,-0.06 -4.31,-0.27 -6.27,0.54s-3.54,3 -2.83,5c0.61,1.68 2.46,2.48 4.13,3.11a66.29,66.29 0 0 1 11,5a30.8,30.8 0 0 0 4.25,2.42a21.91,21.91 0 0 0 4.38,1.08l17.73,3c3.63,0.63 8,1 10.31,-2c1.25,-1.62 1.43,-3.82 1.37,-5.87c-0.1,-4 -0.9,-8.08 -0.38,-12.07a37.24,37.24 0 0 1 1.86,-6.94l5.3,-15.47c1.78,-5.27 3.58,-10.58 4.27,-16.1c0.25,-2 0.23,-4.27 -1.3,-5.53a3.69,3.69 0 0 0 -1.32,-0.68c-0.06,-4.82 -0.69,-9.64 -0.42,-14.46c0.07,-1.21 0.19,-2.41 0.29,-3.61a17.21,17.21 0 0 1 2.47,2.92c1.71,2.67 2.34,6.21 4.95,8c2.22,1.51 5.51,1.44 7.07,3.64a10.34,10.34 0 0 1 1.12,2.7a19.37,19.37 0 0 0 4,6.36a32.28,32.28 0 0 0 2.47,6.34l4.4,9.3a106,106 0 0 0 5,9.77a27.75,27.75 0 0 1 3.35,6.46c1.41,4.95 -0.89,10.37 -4.53,14s-8.44,5.73 -13.17,7.68a3.58,3.58 0 0 0 -1.34,0.8a2.59,2.59 0 0 0 -0.61,1.74c0,2.31 1.9,4.28 4.08,5a15.55,15.55 0 0 0 6.83,0.25c12.78,-1.55 25.52,-4.68 36.82,-10.88a13.21,13.21 0 0 0 4.39,-3.39a5.13,5.13 0 0 0 0.75,-5.31z"/>
  <path id="svg_19" fill="#2f2e41" d="m884.64,511.500001q3.2,4.9 6,10.06a37.17,37.17 0 0 1 3.16,7.16c1.16,4 1.13,8.27 2,12.36c1,4.8 3.34,9.38 3.34,14.29a20.56,20.56 0 0 1 -4.22,11.76a56.28,56.28 0 0 1 -8.82,9.11a187.68,187.68 0 0 1 -12.48,-61.21c-0.1,-2.91 -0.12,-5.9 0.94,-8.61c0.65,-1.69 3.77,-6.35 5.78,-4.52c0.73,0.67 0.92,3.68 1.37,4.69a36.86,36.86 0 0 0 2.93,4.91z"/>
  <path id="svg_20" opacity="0.1" d="m884.64,511.500001q3.2,4.9 6,10.06a37.17,37.17 0 0 1 3.16,7.16c1.16,4 1.13,8.27 2,12.36c1,4.8 3.34,9.38 3.34,14.29a20.56,20.56 0 0 1 -4.22,11.76a56.28,56.28 0 0 1 -8.82,9.11a187.68,187.68 0 0 1 -12.48,-61.21c-0.1,-2.91 -0.12,-5.9 0.94,-8.61c0.65,-1.69 3.77,-6.35 5.78,-4.52c0.73,0.67 0.92,3.68 1.37,4.69a36.86,36.86 0 0 0 2.93,4.91z"/>
  <path id="svg_21" fill="#fbbebe" d="m777.29,522.420001c-3.91,-0.64 -8.25,-0.33 -11.29,2.21a9.32,9.32 0 0 0 -3.24,6.16c-0.26,2.78 1.35,6.06 4.13,6.28a13.17,13.17 0 0 0 2,-0.13a29.88,29.88 0 0 1 5.24,0.43a21.39,21.39 0 0 0 18.23,-7.36c2.39,-2.95 -0.76,-4.29 -3.58,-4.89c-3.86,-0.82 -7.63,-2.06 -11.49,-2.7z"/>
  <path id="svg_22" fill="#3f3d56" d="m844.17,612.720001l2.48,17.62a26.7,26.7 0 0 1 0.38,5.5c-0.29,4.15 -2.5,7.88 -4.09,11.72s-2.56,8.43 -0.45,12c0.65,1.11 1.56,2.06 2.15,3.21a13,13 0 0 1 1,5.64l0.68,25a157.33,157.33 0 0 0 23.18,-0.12a1.3,1.3 0 0 0 0.84,-0.27a1.34,1.34 0 0 0 0.29,-0.9c0.34,-5.85 -0.68,-11.71 -0.35,-17.56c0.12,-2.14 0.42,-4.28 0.46,-6.42c0.12,-8.71 -4.18,-17.24 -2.88,-25.86a57.51,57.51 0 0 1 1.6,-6.43c4.11,-14.95 3.24,-30.76 2.33,-46.24a1.1,1.1 0 0 0 -0.2,-0.71a1.13,1.13 0 0 0 -0.54,-0.29a28.48,28.48 0 0 0 -25.78,4.91c-1.09,0.88 -3.84,1.72 -4.56,2.77c-1,1.47 0.31,2.92 0.89,4.48a56.76,56.76 0 0 1 2.57,11.95z"/>
  <path id="svg_23" opacity="0.1" d="m844.17,612.720001l2.48,17.62a26.7,26.7 0 0 1 0.38,5.5c-0.29,4.15 -2.5,7.88 -4.09,11.72s-2.56,8.43 -0.45,12c0.65,1.11 1.56,2.06 2.15,3.21a13,13 0 0 1 1,5.64l0.68,25a157.33,157.33 0 0 0 23.18,-0.12a1.3,1.3 0 0 0 0.84,-0.27a1.34,1.34 0 0 0 0.29,-0.9c0.34,-5.85 -0.68,-11.71 -0.35,-17.56c0.12,-2.14 0.42,-4.28 0.46,-6.42c0.12,-8.71 -4.18,-17.24 -2.88,-25.86a57.51,57.51 0 0 1 1.6,-6.43c4.11,-14.95 3.24,-30.76 2.33,-46.24a1.1,1.1 0 0 0 -0.2,-0.71a1.13,1.13 0 0 0 -0.54,-0.29a28.48,28.48 0 0 0 -25.78,4.91c-1.09,0.88 -3.84,1.72 -4.56,2.77c-1,1.47 0.31,2.92 0.89,4.48a56.76,56.76 0 0 1 2.57,11.95z"/>
  <path id="svg_24" fill="#3f3d56" d="m890.5,607.430001c-1.17,2.43 -2.74,4.7 -3.44,7.31c-1.82,6.89 2.89,14 2.33,21.06c-0.18,2.22 -0.87,4.4 -0.92,6.63s0.77,4.7 2.75,5.73c1.33,0.69 3,0.62 4.25,1.4c2.11,1.28 2.35,4.22 2.14,6.67s-0.56,5.21 1,7.14c1.19,1.49 3.23,2.06 4.51,3.47a17.25,17.25 0 0 1 1.93,3.27c1.91,3.33 5.4,5.38 8.26,7.94s5.28,6.47 4,10.09c-0.94,2.67 -3.58,4.3 -6.12,5.56a64.9,64.9 0 0 1 -14.57,5.14a3.39,3.39 0 0 1 -1.67,0.09a3.57,3.57 0 0 1 -1.46,-1c-2.95,-2.88 -6,-5.91 -7.36,-9.81a10.21,10.21 0 0 0 -1.12,-2.68c-1.56,-2.18 -4.85,-2.11 -7.07,-3.61c-2.6,-1.77 -3.23,-5.29 -4.93,-7.94s-4.19,-4.22 -6,-6.56c-3.06,-3.88 -3.81,-9.06 -6,-13.49a62.76,62.76 0 0 1 -2.86,-5.6a30.39,30.39 0 0 1 -1.37,-7.24c-1.41,-11.67 -5,-23.44 -2.74,-35c0.5,-2.55 1.27,-5 1.59,-7.62c0.55,-4.54 -0.32,-9.17 0.35,-13.7a3.73,3.73 0 0 1 1.51,-2.9a4,4 0 0 1 1.72,-0.36a118.6,118.6 0 0 1 17.78,0.4c3,0.3 6.36,0.91 8.16,3.35c1.53,2.1 1.45,4.92 1.94,7.47c0.61,3.13 2.2,4.85 3.87,7.31s0.81,4.94 -0.46,7.48z"/>
  <path id="svg_25" fill="#2f2e41" d="m867.5,688.720001c1.58,0 3.33,-0.1 4.55,0.91c1.52,1.24 1.54,3.53 1.3,5.48c-0.7,5.48 -2.49,10.75 -4.28,16l-5.32,15.6a37,37 0 0 0 -1.86,6.89c-0.52,4 0.28,8 0.38,12c0,2 -0.13,4.22 -1.38,5.82c-2.26,2.91 -6.67,2.57 -10.3,2l-17.71,-3a21.09,21.09 0 0 1 -4.38,-1.08a28.69,28.69 0 0 1 -4.25,-2.39a65.38,65.38 0 0 0 -11,-5c-1.66,-0.63 -3.52,-1.42 -4.12,-3.09c-0.71,-2 0.87,-4.19 2.83,-5s4.15,-0.6 6.27,-0.53a46.72,46.72 0 0 0 15.4,-2.09a9.84,9.84 0 0 0 4.06,-2.09a10.1,10.1 0 0 0 2.29,-4.57a70.25,70.25 0 0 0 2.68,-16c0.21,-4 0.07,-8 0.23,-12c0.1,-2.38 -0.13,-10 1.95,-11.63c1.59,-1.22 8.13,2.14 10.28,2.64a50,50 0 0 0 12.38,1.13z"/>
  <path id="svg_26" fill="#2f2e41" d="m925.81,699.810001c1.73,5.74 2,11.79 3.12,17.68s3.1,11.91 7.47,16a9.69,9.69 0 0 1 2.17,2.4a5.06,5.06 0 0 1 -0.75,5.23a13.23,13.23 0 0 1 -4.39,3.36c-11.29,6.17 -24,9.27 -36.81,10.81a15.36,15.36 0 0 1 -6.82,-0.24c-2.18,-0.74 -4.11,-2.7 -4.07,-5a2.53,2.53 0 0 1 0.6,-1.72a3.62,3.62 0 0 1 1.35,-0.8c4.72,-1.93 9.51,-4 13.16,-7.62s5.94,-9 4.53,-13.86a27,27 0 0 0 -3.35,-6.41a108.53,108.53 0 0 1 -5,-9.7l-4.4,-9.23c-1.29,-2.7 -2.59,-5.48 -2.81,-8.46a40.42,40.42 0 0 0 16.22,-2.6a25.24,25.24 0 0 0 6.67,-4c1.7,-1.42 3.25,-4.07 5.54,-2.21c1.84,1.48 3,5.64 4.08,7.76a57.3,57.3 0 0 1 3.49,8.61z"/>
  <path id="svg_27" fill="#fbbebe" d="m861.33,470.630001c0.44,3.83 4.16,6.37 7.71,7.88l-22.47,7.21c1.45,-2.78 0.28,-6.17 -1.16,-9a50.1,50.1 0 0 0 -4,-6.4c-0.22,-0.32 -0.47,-0.71 -0.31,-1.06a1.12,1.12 0 0 1 0.63,-0.49c4.62,-2.06 9.38,-4.19 14.43,-4.94c1.46,-0.22 4.22,-0.8 5.31,0.68s-0.35,4.35 -0.14,6.12z"/>
  <path id="svg_28" opacity="0.1" d="m861.33,470.630001c0.44,3.83 4.16,6.37 7.71,7.88l-22.47,7.21c1.45,-2.78 0.28,-6.17 -1.16,-9a50.1,50.1 0 0 0 -4,-6.4c-0.22,-0.32 -0.47,-0.71 -0.31,-1.06a1.12,1.12 0 0 1 0.63,-0.49c4.62,-2.06 9.38,-4.19 14.43,-4.94c1.46,-0.22 4.22,-0.8 5.31,0.68s-0.35,4.35 -0.14,6.12z"/>
  <circle id="svg_29" fill="#fbbebe" r="17.62" cy="456.12" cx="848.27"/>
  <path id="svg_30" fill="#2f2e41" d="m833.04,601.120001c1.71,2 4.72,2.44 7.35,2c6.15,-1 11.18,-5.53 17.2,-7.17c7.38,-2 15.19,0.58 22.16,3.72s13.9,6.95 21.52,7.55c-6.89,-15.36 -2.95,-33.85 -9.54,-49.34c-1.61,-3.79 -3.86,-7.44 -4.22,-11.54c-0.45,-5.09 2.09,-10 2.48,-15.06c0.36,-4.51 -1,-9 -2.3,-13.29q-2.41,-7.92 -4.82,-15.85c-1.8,-5.91 -3.65,-11.91 -7.14,-17c-1.29,-1.87 -1.68,-5.65 -3.64,-6.79c-4.28,-2.47 -10.77,0.65 -15.41,0.82s-8.87,3.47 -11.58,7.19c-2.87,4 -4.5,8.64 -6,13.28a125.91,125.91 0 0 0 -5.33,21.23c-0.15,1.08 -0.28,2.16 -0.38,3.25c-1,10.27 0.46,20.6 0.54,30.91l0,0.07c0.1,13.09 -2,26.1 -2.39,39.18c-0.04,2.44 -0.04,5.01 1.5,6.84z"/>
  <path id="svg_31" opacity="0.1" d="m833.92,555.040001c3.45,-0.87 6.57,-3.1 9.25,-5.53a39,39 0 0 0 6.14,-6.95a50.14,50.14 0 0 0 5.29,-11.17a129.16,129.16 0 0 0 7,-32.27c0.26,-3 0.34,-6.21 -1.45,-8.59a7.24,7.24 0 0 0 -8.75,-2.13c-2.36,1.16 -3.89,3.49 -5.31,5.71c-2.81,4.43 -5.64,8.9 -7.45,13.82c-0.8,2.18 -1.39,4.43 -2.17,6.62a62,62 0 0 1 -2.74,6.33c-0.15,1.08 -0.28,2.16 -0.38,3.25c-0.93,10.27 0.49,20.59 0.57,30.91z"/>
  <path id="svg_32" fill="#2f2e41" d="m860.1,488.630001c1.79,2.38 1.71,5.63 1.46,8.59a129.35,129.35 0 0 1 -7,32.28a49.43,49.43 0 0 1 -5.29,11.16a38.67,38.67 0 0 1 -6.14,6.95c-3.4,3.11 -7.54,5.87 -12.15,5.92a23.42,23.42 0 0 1 -7.56,-1.65l-37.51,-12.75c-0.38,-2.14 1.13,-4.63 1.84,-6.69l2,-5.94c0.57,-1.64 1.23,-3.4 2.72,-4.29s3.85,0.33 5.09,1.31s2.18,2.3 3.4,3.31c2.31,1.92 5.36,2.63 8.3,3.29l8.43,1.9a35.6,35.6 0 0 0 9.38,1.24c2.35,-7.17 6.82,-13.5 9.35,-20.61c0.78,-2.19 1.37,-4.44 2.18,-6.61c1.8,-4.93 4.64,-9.4 7.45,-13.82c1.41,-2.23 2.94,-4.56 5.31,-5.71a7.21,7.21 0 0 1 8.74,2.12z"/>
  <path id="svg_33" fill="#2f2e41" d="m853.89,460.090001a9,9 0 0 0 -1.06,-3.3a2.79,2.79 0 0 0 -3,-1.32c-1.76,0.55 -2.35,3.28 -4.19,3.37c-1.24,0.06 -2.13,-1.2 -2.52,-2.39s-0.6,-2.52 -1.53,-3.36a5.68,5.68 0 0 0 -2.18,-1c-4.27,-1.35 -8.68,-3.85 -10.1,-8.1a4.83,4.83 0 0 1 -0.23,-2.71c0.65,-2.69 4,-3.49 6.55,-4.47s5,-2.63 7.5,-3.88s5.4,-2.16 8.15,-1.52a42.56,42.56 0 0 1 4.11,1.54c4.14,1.43 9.21,0.76 12.42,3.75a12.93,12.93 0 0 1 3,5.25c2.24,6.21 3.66,13.59 -0.05,19.06c-2.29,3.37 -4.51,7.22 -8.91,7.62c-5.12,0.45 -7.15,-4.22 -7.96,-8.54z"/>
  <g id="svg_34" opacity="0.1">
   <path id="svg_35" d="m846.07,454.330001c-0.39,-1.18 -0.6,-2.52 -1.52,-3.36a5.68,5.68 0 0 0 -2.18,-1c-4.28,-1.35 -8.68,-3.85 -10.11,-8.1a4.92,4.92 0 0 1 -0.22,-2.71a3.56,3.56 0 0 1 0.53,-1.19c-1.63,0.71 -3.05,1.65 -3.45,3.31a4.83,4.83 0 0 0 0.23,2.71c1.42,4.25 5.83,6.75 10.1,8.1a5.68,5.68 0 0 1 2.18,1c0.93,0.84 1.13,2.18 1.53,3.36s1.28,2.45 2.52,2.39s1.84,-1.19 2.63,-2.15c-1.09,-0.13 -1.88,-1.27 -2.24,-2.36z"/>
   <path id="svg_36" d="m864.79,466.490001c-5.14,0.47 -7.17,-4.2 -8,-8.52a8.65,8.65 0 0 0 -1,-3.29a2.8,2.8 0 0 0 -3,-1.33c-0.95,0.3 -1.56,1.24 -2.21,2a3,3 0 0 1 2.26,1.39a9,9 0 0 1 1.06,3.3c0.81,4.32 2.84,9 8,8.52a8.2,8.2 0 0 0 5.28,-2.73a7.45,7.45 0 0 1 -2.39,0.66z"/>
  </g>
  <path id="svg_37" fill="#f2f2f2" d="m253.89,382.780001c-45.58,-8 -98.57,-6.6 -155.7,0c11.59,-65.72 12.13,-130.1 0,-192.93l155.7,0a543.76,543.76 0 0 1 0,192.93z"/>
  <rect id="svg_38" fill="#3f3d56" height="17.77" width="54.16" y="178.85" x="153.28"/>
  <rect id="svg_39" fill="#f7971e" height="13" width="96" y="433.43" x="388"/>
  <rect id="svg_40" fill="#f7971e" height="13" width="96" y="460.43" x="388"/>
  <rect id="svg_41" fill="#f7971e" height="13" width="96" y="43.43" x="516"/>
  <rect id="svg_42" fill="#f7971e" height="13" width="96" y="70.43" x="516"/>
  <rect id="svg_43" fill="#f7971e" height="13" width="96" y="225.43" x="132"/>
  <path id="svg_44" fill="#f7971e" d="m127.56,721.310001l19.14,-11.25a46,46 0 0 0 -9.79,-11.71l-36.11,11.23l28.3,-16.64a46,46 0 0 0 -68.1,40.35c0,25.41 20.59,26.29 46,26.29s46,-0.88 46,-26.29a45.75,45.75 0 0 0 -3.95,-18.66l-21.49,6.68z"/>
  <path id="svg_45" opacity="0.1" d="m132.43,746.010001a35.81,35.81 0 0 0 -6.78,-5.33c-3.48,-2.31 -7.07,-4.66 -11.17,-5.45c-3.6,-0.68 -7.31,-0.1 -11,-0.31a25.71,25.71 0 0 1 -16.81,-7.7c-2.61,-2.71 -4.67,-6 -7.81,-8.09c-3.39,-2.23 -7.69,-2.71 -11.71,-2.15a29.07,29.07 0 0 0 -3.46,0.71a45.8,45.8 0 0 0 -2.72,15.6c0,25.41 20.59,26.29 46,26.29c12.33,0 23.52,-0.21 31.78,-3.33l-1.35,-2.53a35.89,35.89 0 0 0 -4.97,-7.71z"/>
  <path id="svg_46" fill="#f7971e" d="m597.74,684.620001l-25.39,-14.9a61.22,61.22 0 0 1 13,-15.53l47.89,14.89l-37.53,-22.06a61,61 0 0 1 90.31,53.51c0,33.69 -27.31,34.85 -61,34.85s-61,-1.16 -61,-34.85a60.77,60.77 0 0 1 5.21,-24.81l28.51,8.9z"/>
  <path id="svg_47" opacity="0.1" d="m591.27,717.370001a48.63,48.63 0 0 1 9,-7.07c4.61,-3.05 9.38,-6.18 14.81,-7.22c4.77,-0.91 9.69,-0.14 14.54,-0.42a34,34 0 0 0 22.3,-10.21c3.46,-3.59 6.19,-8 10.36,-10.73c4.49,-3 10.19,-3.58 15.52,-2.85a42.61,42.61 0 0 1 4.6,0.94a60.89,60.89 0 0 1 3.6,20.7c0,33.69 -27.31,34.85 -61,34.85c-16.35,0 -31.19,-0.27 -42.15,-4.4l1.83,-3.42a48.05,48.05 0 0 1 6.59,-10.17z"/>
 </g>
</svg>