<svg width="1086.08" height="611.71" xmlns="http://www.w3.org/2000/svg" xmlns:xlink="http://www.w3.org/1999/xlink">
 <defs>
  <linearGradient id="0894c1c3-008a-4fd9-8eb6-3f5e53f78262" x1="0.499765" y1="1" x2="0.499765" y2="-0.000084">
   <stop offset="0" stop-color="gray" stop-opacity="0.25"/>
   <stop offset="0.54" stop-color="gray" stop-opacity="0.12"/>
   <stop offset="1" stop-color="gray" stop-opacity="0.1"/>
  </linearGradient>
  <linearGradient id="60f358e9-30c7-45a8-81a4-1235e6b38863" x1="102.69" y1="723.72" x2="102.69" y2="581.57" xlink:href="#0894c1c3-008a-4fd9-8eb6-3f5e53f78262"/>
 </defs>
 <title>features overview</title>
 <g>
  <title>background</title>
  <rect x="-1" y="-1" width="1088.08" height="613.71" id="canvas_background" fill="none"/>
 </g>
 <g>
  <title>Layer 1</title>
  <path d="m604.670001,83.430006c-62.66,-0.36 -122.72,-16.37 -180.14,-34.1s-114.33,-37.48 -175.7,-46.16c-39.47,-5.56 -84.45,-5.39 -115.68,13.58c-30.05,18.26 -39.17,48.74 -43.78,76.93c-3.48,21.21 -5.28,43.49 6.12,63c7.91,13.54 21.64,24.75 31.27,37.67c33.49,44.95 12,101.9 -22,147.41c-16,21.35 -34.56,41.8 -46.72,64.4s-17.41,48.31 -5.75,70.78c11.56,22.28 38.22,38.58 66.94,49.81c58.34,22.79 126.56,28.06 193,30.37c147.11,5.12 294.7,-2.22 441.89,-9.55c54.48,-2.72 109.19,-5.46 162.63,-14c29.68,-4.76 60.27,-11.93 81.51,-27.94c27,-20.34 33,-53.8 14,-78c-31.84,-40.61 -117.38,-48.82 -140,-92.68c-12.46,-24.15 -0.94,-51.66 15.76,-74.74c35.82,-49.51 96.79,-93.67 98.71,-149.31c1.32,-38.22 -29.42,-75.72 -75.95,-92.66c-48.84,-17.82 -115.74,-13.82 -150.66,18.38c-35.92,33.15 -100.08,47.13 -155.45,46.81z" fill="#f7971E" opacity="0.1" id="svg_1"/>
  <g id="db976b58-83c4-4bad-bfc1-713fe8b9d2f6">
   <path d="m569.040001,243.940006s-27.48,-48.69 -68.88,-62.72a84.75,84.75 0 0 1 -42.91,-32.1a142.27,142.27 0 0 1 -12.66,-22.77" fill="#f7971e" stroke="#535461" stroke-miterlimit="10" stroke-width="2" id="svg_2"/>
   <path d="m418.570001,117.350006c4.71,4.58 26.68,9.31 26.68,9.31s-5.39,-21.81 -10.1,-26.39a11.9,11.9 0 0 0 -16.58,17.08z" fill="#f7971e" id="svg_3"/>
   <path d="m431.040001,156.850006c6.45,1.28 27.47,-6.69 27.47,-6.69s-16.47,-15.4 -22.88,-16.68a11.9,11.9 0 0 0 -4.59,23.37z" fill="#f7971e" id="svg_4"/>
   <path d="m476.240001,199.540006c6.21,-2.15 20.33,-19.63 20.33,-19.63s-21.9,-5 -28.11,-2.86a11.9,11.9 0 1 0 7.78,22.49z" fill="#f7971e" id="svg_5"/>
   <path d="m517.760001,224.160006c6.48,-1.07 23.35,-15.92 23.35,-15.92s-20.74,-8.64 -27.23,-7.57a11.9,11.9 0 0 0 3.88,23.49z" fill="#f7971e" id="svg_6"/>
   <path d="m476.770001,133.090006c0,6.58 -11.89,25.64 -11.89,25.64s-11.91,-19.05 -11.91,-25.63a11.9,11.9 0 0 1 23.8,0l0,-0.01z" fill="#f7971e" id="svg_7"/>
   <path d="m524.960001,162.490006c-2,6.28 -19,20.91 -19,20.91s-5.66,-21.75 -3.7,-28a11.9,11.9 0 0 1 22.72,7.11l-0.02,-0.02z" fill="#f7971e" id="svg_8"/>
   <path d="m567.870001,197.490006c-0.87,6.52 -15.21,23.83 -15.21,23.83s-9.25,-20.48 -8.38,-27a11.9,11.9 0 1 1 23.59,3.17z" fill="#f7971e" id="svg_9"/>
   <path d="m418.570001,117.350006c4.71,4.58 26.68,9.31 26.68,9.31s-5.39,-21.81 -10.1,-26.39a11.9,11.9 0 0 0 -16.58,17.08z" opacity="0.25" id="svg_10" fill="#f7971e"/>
   <path d="m431.040001,156.850006c6.45,1.28 27.47,-6.69 27.47,-6.69s-16.47,-15.4 -22.88,-16.68a11.9,11.9 0 0 0 -4.59,23.37z" opacity="0.25" id="svg_11" fill="#f7971e"/>
   <path d="m476.240001,199.540006c6.21,-2.15 20.33,-19.63 20.33,-19.63s-21.9,-5 -28.11,-2.86a11.9,11.9 0 1 0 7.78,22.49z" opacity="0.25" id="svg_12" fill="#f7971e"/>
   <path d="m517.760001,224.160006c6.48,-1.07 23.35,-15.92 23.35,-15.92s-20.74,-8.64 -27.23,-7.57a11.9,11.9 0 0 0 3.88,23.49z" opacity="0.25" id="svg_13" fill="#f7971e"/>
   <path d="m476.770001,133.090006c0,6.58 -11.89,25.64 -11.89,25.64s-11.91,-19.05 -11.91,-25.63a11.9,11.9 0 0 1 23.8,0l0,-0.01z" opacity="0.25" id="svg_14" fill="#f7971e"/>
   <path d="m524.960001,162.490006c-2,6.28 -19,20.91 -19,20.91s-5.66,-21.75 -3.7,-28a11.9,11.9 0 0 1 22.72,7.11l-0.02,-0.02z" opacity="0.25" id="svg_15" fill="#f7971e"/>
   <path d="m567.870001,197.490006c-0.87,6.52 -15.21,23.83 -15.21,23.83s-9.25,-20.48 -8.38,-27a11.9,11.9 0 1 1 23.59,3.17z" opacity="0.25" id="svg_16" fill="#f7971e"/>
   <path d="m567.470001,242.980006s-5.4,-55.66 -37.55,-85.26a84.72,84.72 0 0 1 -26.23,-46.73a142.25,142.25 0 0 1 -2.34,-25.95" fill="#f7971e" stroke="#535461" stroke-miterlimit="10" stroke-width="2" id="svg_17"/>
   <path d="m481.200001,66.260006c2.45,6.1 20.62,19.33 20.62,19.33s3.91,-22.13 1.45,-28.23a11.9,11.9 0 1 0 -22.07,8.9z" fill="#f7971e" id="svg_18"/>
   <path d="m476.560001,107.390006c5.38,3.78 27.81,5 27.81,5s-8.74,-20.7 -14.11,-24.48a11.9,11.9 0 1 0 -13.7,19.47l0,0.01z" fill="#f7971e" id="svg_19"/>
   <path d="m500.620001,164.780006c6.55,0.55 26.54,-9.72 26.54,-9.72s-18,-13.45 -24.55,-14a11.9,11.9 0 1 0 -2,23.72l0.01,0z" fill="#f7971e" id="svg_20"/>
   <path d="m528.600001,204.100006c6.36,1.65 27.8,-5.09 27.8,-5.09s-15.47,-16.3 -21.83,-18a11.9,11.9 0 1 0 -6,23l0.03,0.09z" fill="#f7971e" id="svg_21"/>
   <path d="m528.040001,104.240006c-2.66,6 -21.26,18.62 -21.26,18.62s-3.17,-22.24 -0.51,-28.25a11.9,11.9 0 0 1 21.77,9.63z" fill="#f7971e" id="svg_22"/>
   <path d="m560.170001,150.650006c-4.34,4.93 -25.86,11.4 -25.86,11.4s3.63,-22.17 8,-27.11a11.9,11.9 0 1 1 17.89,15.71l-0.03,0z" fill="#f7971e" id="svg_23"/>
   <path d="m585.220001,200.030006c-3.44,5.6 -23.56,15.62 -23.56,15.62s-0.17,-22.47 3.27,-28.08a11.91,11.91 0 0 1 20.29,12.46z" fill="#f7971e" id="svg_24"/>
  </g>
  <path d="m826.510001,596.900006c2.95,6 -17.92,12.45 -43.77,14.31c-23.16,1.67 -42.2,-1.05 -44.61,-5.93s12.34,-10.8 35,-13.47c25.29,-2.96 50.43,-0.85 53.38,5.09z" fill="#669100" opacity="0.1" id="svg_25"/>
  <polygon points="218.75 279.55 537.33 166.72 537.33 556.51 218.75 549.87 218.75 279.55" fill="#fff" id="svg_26"/>
  <polygon points="218.75 279.55 537.33 166.72 537.33 556.51 218.75 549.87 218.75 279.55" fill="#f7971e" opacity="0.2" id="svg_27"/>
  <polygon points="0 343.92 181.75 279.55 181.75 549.87 0 549.87 0 343.92" fill="#fff" id="svg_28"/>
  <polygon points="0 343.92 181.75 279.55 181.75 549.87 0 549.87 0 343.92" fill="#f7971e" opacity="0.2" id="svg_29"/>
  <polygon points="537.33 166.72 855.9 279.55 855.9 549.87 537.33 556.51 537.33 166.72" fill="#fff" id="svg_30"/>
  <polygon points="537.33 166.72 855.9 279.55 855.9 549.87 537.33 556.51 537.33 166.72" fill="#f7971e" opacity="0.5" id="svg_31"/>
  <polygon points="1077.94 344.73 893.9 279.55 893.9 549.87 1077.94 549.87 1077.94 344.73" fill="#fff" id="svg_32"/>
  <polygon points="1077.94 344.73 893.9 279.55 893.9 549.87 1077.94 549.87 1077.94 344.73" fill="#f7971e" opacity="0.5" id="svg_33"/>
  <path d="m105.910001,390.850006c-1.29,0 -2.34,1.76 -2.34,3.93l0,48.92a29,29 0 0 1 -3.31,13.87c-2.09,3.67 -5.29,6 -8.35,6l-2,0c-3,0 -5.94,-2.24 -8.24,-6.19a28.28,28.28 0 0 1 -3.63,-13.97l0,-63.12a19,19 0 0 1 2.6,-9.94c1.67,-2.64 3.86,-4.1 6.16,-4.1s4.41,1.46 6,4.08a19.83,19.83 0 0 1 2.46,10l0,58.94c0,4.3 -2,8.1 -4.36,8.1c-2,0 -4.24,-3.24 -4.24,-8.1l0,-33.66c0,-2.16 -1.05,-3.93 -2.34,-3.93s-2.35,1.77 -2.35,3.93l0,33.62c0,8.94 3.84,15.68 8.93,15.68c2.48,0 4.77,-1.54 6.42,-4.35a22.71,22.71 0 0 0 2.63,-11.33l0,-58.94a30.58,30.58 0 0 0 -3.91,-15.55c-2.48,-4.15 -5.79,-6.42 -9.32,-6.42s-6.84,2.27 -9.35,6.42a30.47,30.47 0 0 0 -3.9,15.58l0,63.11c0,7.23 1.84,14.57 4.9,19.63s7.2,8 11.44,8l2.05,0c4.15,0 8.31,-2.94 11.41,-8.08a33.1,33.1 0 0 0 3.59,-8.7a42,42 0 0 0 1.34,-10.6l0,-49c0,-2.17 -1,-3.93 -2.33,-3.93l0.04,0.1z" fill="#fff" id="svg_34"/>
  <path d="m553.610001,499.770006s5.93,7.76 -2.74,19.47s-15.83,21.61 -12.93,28.89c0,0 13.08,-21.75 23.72,-22s3.65,-13.28 -8.05,-26.36z" fill="#f7971e" id="svg_35"/>
  <path d="m553.610001,499.770006a9.81,9.81 0 0 1 1.21,2.44c10.38,12.2 15.91,23.58 5.93,23.87c-9.3,0.27 -20.45,16.89 -23.12,21.09a8.25,8.25 0 0 0 0.31,1s13.08,-21.75 23.72,-22s3.65,-13.32 -8.05,-26.4z" opacity="0.1" id="svg_36"/>
  <path d="m564.630001,509.660006c0,2.73 -0.31,4.94 -0.69,4.94s-0.68,-2.21 -0.68,-4.94s0.38,-1.45 0.76,-1.45s0.61,-1.28 0.61,1.45z" fill="#ffd037" id="svg_37"/>
  <path d="m568.410001,512.920006c-2.39,1.3 -4.48,2.09 -4.66,1.76s1.61,-1.66 4,-3s1.45,-0.35 1.63,0s1.43,-0.07 -0.97,1.24z" fill="#ffd037" id="svg_38"/>
  <path d="m522.280001,499.770006s-5.93,7.76 2.74,19.47s15.81,21.61 12.92,28.89c0,0 -13.07,-21.75 -23.72,-22s-3.65,-13.28 8.06,-26.36z" fill="#f7971e" id="svg_39"/>
  <path d="m522.280001,499.770006a9.81,9.81 0 0 0 -1.21,2.44c-10.39,12.2 -15.92,23.58 -5.93,23.87c9.29,0.27 20.45,16.89 23.12,21.09a8.31,8.31 0 0 1 -0.32,1s-13.07,-21.75 -23.72,-22s-3.65,-13.32 8.06,-26.4z" opacity="0.1" id="svg_40"/>
  <path d="m511.260001,509.660006c0,2.73 0.3,4.94 0.68,4.94s0.69,-2.21 0.69,-4.94s-0.39,-1.45 -0.76,-1.45s-0.61,-1.28 -0.61,1.45z" fill="#ffd037" id="svg_41"/>
  <path d="m507.470001,512.920006c2.4,1.3 4.49,2.09 4.67,1.76s-1.61,-1.66 -4,-3s-1.45,-0.35 -1.63,0s-1.47,-0.07 0.96,1.24z" fill="#ffd037" id="svg_42"/>
  <ellipse cx="537.94" cy="597.94" rx="62" ry="9.51" fill="#669100" opacity="0.1" id="svg_43"/>
  <path d="m569.860001,537.680006l-0.3,2.42l-0.42,3.42l-0.17,1.42l-0.42,3.43l-0.18,1.42l-0.41,3.42l-4.75,38.9c-0.42,3.47 -6.09,6.18 -12.94,6.18l-24.65,0c-6.85,0 -12.51,-2.71 -12.94,-6.18l-4.75,-38.9l-0.42,-3.42l-0.17,-1.42l-0.42,-3.43l-0.18,-1.42l-0.41,-3.42l-0.3,-2.42c-0.24,-2 2.83,-3.63 6.71,-3.63l50.42,0c3.88,0 6.94,1.66 6.7,3.63z" fill="#444053" id="svg_44"/>
  <polygon points="569.56 540.1 569.14 543.52 506.74 543.52 506.33 540.1 569.56 540.1" fill="#9d9cb5" id="svg_45"/>
  <polygon points="568.97 544.95 568.55 548.37 507.34 548.37 506.92 544.95 568.97 544.95" fill="#9d9cb5" id="svg_46"/>
  <polygon points="568.37 549.8 567.96 553.22 507.93 553.22 507.51 549.8 568.37 549.8" fill="#9d9cb5" id="svg_47"/>
  <path d="m417.400001,326.450006l-9.55,12.69a0.73,0.73 0 0 1 -0.74,0.31l-9.87,-2.36a1.06,1.06 0 0 1 -0.68,-0.9l-1.76,-13.07a1.4,1.4 0 0 1 0.23,-1l9.53,-12.67a2.73,2.73 0 0 0 -0.22,-3.41a10.31,10.31 0 0 0 -6.76,-3a1.89,1.89 0 0 0 -0.42,0c-2.66,0.2 -8.36,2.17 -12.76,8.36c-4.27,6 -8.74,17.06 -4.78,29.42c0.47,1.49 1,3.46 -0.58,5.55s-42.45,53 -42.45,53c-3.83,4.37 -3.55,12.45 0,17.15a8.49,8.49 0 0 0 6.65,3.6a7.44,7.44 0 0 0 6.29,-3.69s38.14,-53.8 40,-56.25a3,3 0 0 1 2.36,-1.43a3.27,3.27 0 0 1 1.82,0.67a12,12 0 0 0 6.89,2.09c5.7,0 11.69,-3.5 15.35,-8.34a30.18,30.18 0 0 0 6.29,-16.92a18.6,18.6 0 0 0 -2.27,-9.63a1.47,1.47 0 0 0 -2.57,-0.22l0,0.05zm-72,83.9a2.53,2.53 0 0 1 -4.23,0a5,5 0 0 1 0,-5.6a2.53,2.53 0 0 1 4.23,0a5,5 0 0 1 0.01,5.65l-0.01,-0.05z" fill="#fff" id="svg_48"/>
  <path d="m755.510001,350.980006c-2.64,-30.52 -23.33,-54.3 -48.5,-54.3c-16.66,0 -31.33,10.39 -40.14,26.26a19.15,19.15 0 0 0 -8.75,-2.15c-12.72,0 -23,14 -23.23,29.78c-13,5.16 -21.56,21 -21.56,37.62c0,20.37 13.24,38.35 29.56,38.35l107.44,0c16.33,0 29.57,-18 29.57,-38.35c0,-18.14 -10.54,-34.13 -24.39,-37.21zm-24.27,-7l-43.49,54.5l0,0c-0.56,0.69 -2,2.23 -3.78,2.23a5.33,5.33 0 0 1 -3.8,-2.31l-18.25,-22.75a1.91,1.91 0 0 1 0,-2.31l5.79,-7.22a1.17,1.17 0 0 1 0.91,-0.49a1.16,1.16 0 0 1 0.91,0.49l14.45,18l39.68,-49.87a1.2,1.2 0 0 1 0.91,-0.49a1.1,1.1 0 0 1 0.91,0.49l5.69,7.35a1.87,1.87 0 0 1 0.07,2.35l0,0.03z" fill="#fff" id="svg_49"/>
  <ellipse cx="1018.88" cy="386.12" rx="9.89" ry="13.19" fill="#fff" id="svg_50"/>
  <path d="m1018.880001,404.400006a10.47,10.47 0 0 1 -3.21,-0.52l-9.76,13.27a0.65,0.65 0 0 0 0,0.77l15.51,22a4.46,4.46 0 0 1 0,5.06a2.44,2.44 0 0 1 -1.9,1a2.41,2.41 0 0 1 -1.89,-1l-15.45,-22a0.36,0.36 0 0 0 -0.6,0l-3.77,5.12c-3.15,4.26 -7.33,3.62 -11.83,3.65s-8.87,-2.53 -12.07,-6.85l-3.62,-4.92a0.36,0.36 0 0 0 -0.6,0l-15.45,22a2.44,2.44 0 0 1 -1.9,1a2.41,2.41 0 0 1 -1.89,-1a4.46,4.46 0 0 1 0,-5.06l15.51,-22a0.76,0.76 0 0 0 0,-0.77l-22.19,-30.12c-0.27,-0.36 -0.7,-0.11 -0.7,0.38l0,60.28c0,4.84 3,8.8 6.59,8.8l72.52,3c3.63,0 6.59,-4 6.59,-8.8l0,-48.93c-2.49,3.47 -5.99,5.64 -9.89,5.64z" fill="#fff" id="svg_51"/>
  <path d="m1005.180001,386.120006a23.27,23.27 0 0 1 1.69,-8.8l-57.23,-3a5.57,5.57 0 0 0 -4.08,1.93l32.33,43.9a10,10 0 0 0 8.05,4.5c3,0 5.92,1.41 8.06,-1.5l16.58,-22.52c-3.29,-3.35 -5.4,-8.6 -5.4,-14.51z" fill="#fff" id="svg_52"/>
  <path d="m1085.860001,544.230006s-11.69,-0.7 -10.31,7.48a2,2 0 0 0 1,2.11s0,-0.61 1.2,-0.4a5.63,5.63 0 0 0 1.27,0.06a2.71,2.71 0 0 0 1.55,-0.64l0,0s3.28,-1.36 4.56,-6.73c0,0 0.95,-1.17 0.91,-1.47l-2,0.84a3.55,3.55 0 0 1 0.14,2.61s-0.06,-2.56 -0.44,-2.5c-0.08,0 -1,0.5 -1,0.5s1.16,2.47 0.29,4.27c0,0 0.33,-3 -0.65,-4.09l-1.39,0.81s1.36,2.55 0.44,4.64c0,0 0.24,-3.2 -0.73,-4.45l-1.26,1s1.28,2.53 0.5,4.26c0,0 -0.1,-3.73 -0.77,-4a7.72,7.72 0 0 0 -1.27,1.37s0.87,1.83 0.33,2.79c0,0 -0.33,-2.48 -0.6,-2.49a8.12,8.12 0 0 0 -1.21,2.77a6,6 0 0 1 0.95,-2.93a3.29,3.29 0 0 0 -1.68,0.87s0.17,-1.16 2,-1.27a7.8,7.8 0 0 1 1.14,-1.32a7.14,7.14 0 0 0 -2.84,0.33s1,-1.1 3.17,-0.6l1.24,-1a10.3,10.3 0 0 0 -3.32,0s1.14,-1 3.65,-0.26l1.36,-0.81a12.39,12.39 0 0 0 -3.17,-0.28a4.86,4.86 0 0 1 3.56,0.06l1,-0.43s-1.46,-0.29 -1.88,-0.33s-0.45,-0.17 -0.45,-0.17a5.06,5.06 0 0 1 2.73,0.31a12.47,12.47 0 0 0 1.98,-0.91z" fill="#f7971e" id="svg_53"/>
  <ellipse cx="1077.81" cy="554.53" rx="8.27" ry="1.4" fill="#669100" opacity="0.1" id="svg_54"/>
  <path d="m905.820001,544.570006s-14.1,-0.85 -12.44,9a2.41,2.41 0 0 0 1.25,2.54s0,-0.73 1.45,-0.48a6.27,6.27 0 0 0 1.53,0.07a3.18,3.18 0 0 0 1.88,-0.77l0,0s4,-1.64 5.5,-8.12c0,0 1.15,-1.41 1.1,-1.78l-2.38,1a4.27,4.27 0 0 1 0.17,3.14s-0.07,-3.08 -0.53,-3c-0.09,0 -1.24,0.59 -1.24,0.59s1.4,3 0.35,5.17c0,0 0.4,-3.69 -0.79,-5l-1.67,1s1.63,3.09 0.53,5.62c0,0 0.28,-3.87 -0.88,-5.38l-1.52,1.19s1.54,3 0.6,5.13c0,0 -0.12,-4.5 -0.93,-4.84a9.18,9.18 0 0 0 -1.53,1.65s1,2.21 0.4,3.38c0,0 -0.4,-3 -0.73,-3a10,10 0 0 0 -1.46,3.35a7.26,7.26 0 0 1 1.14,-3.54a4,4 0 0 0 -2,1s0.21,-1.41 2.36,-1.53a9.21,9.21 0 0 1 1.38,-1.6a8.62,8.62 0 0 0 -3.43,0.4s1.14,-1.33 3.82,-0.73l1.5,-1.22a12.5,12.5 0 0 0 -4,0s1.37,-1.17 4.41,-0.32l1.63,-1a14.66,14.66 0 0 0 -3.83,-0.33s1.51,-0.82 4.31,0.06l1.16,-0.52s-1.75,-0.34 -2.27,-0.4s-0.54,-0.2 -0.54,-0.2a6.12,6.12 0 0 1 3.3,0.37a14.19,14.19 0 0 0 2.4,-0.9z" fill="#f7971e" id="svg_55"/>
  <ellipse cx="896.11" cy="557.01" rx="9.98" ry="1.69" fill="#669100" opacity="0.1" id="svg_56"/>
  <path d="m817.360001,445.990006s1.15,-1.11 0.77,-1.86a1.73,1.73 0 0 1 0,-1.49s-2.58,-10.14 -3.54,-11.16a7.78,7.78 0 0 1 -1.43,-2.52a1.31,1.31 0 0 0 0.14,-0.64a5.11,5.11 0 0 0 -1,-2.83a6.94,6.94 0 0 1 -1.19,-3.75a4.16,4.16 0 0 1 0,-0.5l0,0l0,0a5,5 0 0 0 -3.46,-3.07c0.33,-2.15 0.78,-4.3 0.92,-6.46c0.45,-6.77 -2.07,-13.34 -4.55,-19.68a20.75,20.75 0 0 0 -2.17,-4.47a13,13 0 0 0 -9.34,-5.1a9.13,9.13 0 0 0 -4,0.39a12.42,12.42 0 0 0 -3.45,2.31c-1.07,0.9 -2.14,1.82 -3.13,2.8l-0.12,0.12l-0.35,0.37l-0.14,0.14l-0.33,0.37l-0.12,0.13c-0.14,0.17 -0.29,0.34 -0.43,0.52l0,0c-0.13,0.17 -0.26,0.33 -0.38,0.5l-0.12,0.17l-0.26,0.37l-0.12,0.19c-0.09,0.13 -0.16,0.26 -0.24,0.39l-0.11,0.18c-0.1,0.19 -0.21,0.38 -0.31,0.58l-0.36,0.8l0,0.11l-0.21,0.53c-0.27,0.64 -0.53,1.28 -0.86,1.89l0,0l-0.06,0.1l-0.72,0.87a6.76,6.76 0 0 0 -0.82,1.4l-0.07,0.16c0,0.07 -0.05,0.15 -0.08,0.22l-0.07,0.18a2,2 0 0 1 -0.07,0.23c0,0.06 0,0.12 0,0.19l-0.06,0.22c0,0.07 0,0.13 0,0.2s0,0.15 -0.05,0.22l0,0.21l0,0.22c0,0.08 0,0.16 0,0.25s0,0.12 0,0.17s0,0.28 0,0.42s0,0.11 0,0.17a2.44,2.44 0 0 0 0,0.27a1.1,1.1 0 0 0 0,0.18a2.11,2.11 0 0 0 0,0.25l0,0.18c0,0.09 0,0.17 0,0.25a1.16,1.16 0 0 0 0,0.18l0.06,0.26s0,0.11 0,0.16l0.09,0.28s0,0.09 0.05,0.13s0.1,0.28 0.16,0.41a10.76,10.76 0 0 0 1.12,1.9c0.29,0.4 0.59,0.79 0.89,1.19l0.43,0.6a10.93,10.93 0 0 1 0.79,1.25a8.7,8.7 0 0 1 -0.31,8.62l-0.36,0.55a2.93,2.93 0 0 0 -0.41,1a2.14,2.14 0 0 0 0.57,1.71l-0.89,0.23c-0.73,0.2 -1.23,0.36 -1.23,0.36a10.37,10.37 0 0 0 -1.82,0a5,5 0 0 0 -2.19,1.4s-3.82,0.46 -5.07,-0.65s-5.63,-1.49 -5.63,-1.49s-1.24,-2.42 -2.58,-3.17s-4.58,-2.14 -4.68,-2.88a6.79,6.79 0 0 0 -1.24,-2.14a11,11 0 0 0 -2,-0.24l-0.21,-0.36l-2.67,-4.61s-3.35,-3.91 -5.16,-4.28s2.55,4.15 2.76,4.36a2.87,2.87 0 0 0 -4,0.66c-1.42,1.58 2.35,5.29 4.69,7.34l0.38,0.33a4.74,4.74 0 0 0 0.09,0.61c1.05,5.49 6.87,10.24 6.87,10.24s0.67,3.07 2.87,3.82c1.75,0.59 11.15,4.85 16.05,5.7c-0.41,1.06 -0.89,3.52 1.14,7.14c0,0 0.48,6.42 -0.57,7.26s-1,10.14 -1,10.14s-4,16.19 0,19.63a3.12,3.12 0 0 0 0.85,0.52c0,0.25 0.07,0.51 0.1,0.78c0.18,1.62 0.24,3.3 -0.19,4c-1,1.58 0.33,5.86 0.33,5.86s-3.86,21.87 -2.14,29.59a88.48,88.48 0 0 1 1.52,17.5s-0.57,6.79 2.39,10.89a11.26,11.26 0 0 1 0.57,3a17.89,17.89 0 0 0 1.53,5.67c0.67,1.3 2,6.8 0.86,8.28s1.24,17.69 1.24,17.69s-1.91,5 0,7.63l0.06,0.07a13,13 0 0 1 -3.35,-0.48c-2.14,-0.72 -0.54,2 2,3.86c-1.11,2.52 -2.63,5.9 -3.14,7c-2.21,0.38 -6.59,1 -9.16,0.39c-3.53,-0.83 1.53,4.84 6.3,5.87a45.69,45.69 0 0 0 10.22,0.74l3.08,-3.4a39.12,39.12 0 0 0 7.51,0.28l-0.27,3.16l1.81,0l0,-3.28c1.14,-0.11 2.32,-0.26 3.54,-0.48c0,0 0.07,-3.46 -0.15,-6.73l1.11,0.1l0.17,-1.81l3.93,0.71l3.53,-29s0.39,-10.79 1.25,-16.84s-1.82,-26.34 -1.82,-26.34s-0.19,-1 -0.38,-2.88s0,-12.85 0,-12.85s1.43,-6 1.15,-6.51s0.09,-3.07 0.09,-3.07c6,-12.23 -1.38,-23.28 -3.95,-26.56a0.79,0.79 0 0 0 0.25,-0.53a0.5,0.5 0 0 0 0,-0.21a22.4,22.4 0 0 0 -1.44,-3l1.5,-1.91c0.52,0.75 0.89,1.31 0.89,1.31s1.62,-3.63 3.25,-5s9.45,-14.42 9.45,-14.42s1.82,-1.22 0.86,-2.24s-0.45,-0.89 -0.45,-0.89zm-24.06,102.92a2.58,2.58 0 0 0 -0.68,-1.11s-0.28,-2 -0.38,-4.57c0.57,2 1.15,3.45 1.15,3.45l-0.09,2.23zm4.59,45.34c0,-0.18 0,-0.36 0,-0.53l0.14,0l-0.14,0.53zm1.18,-132.38l0,-0.12a1.48,1.48 0 0 1 0.62,-1.33a0.7,0.7 0 0 0 0.33,-0.65a2.36,2.36 0 0 0 -0.46,-1.16c0.19,0.14 0.78,0.46 1.18,-0.7a1.77,1.77 0 0 0 0.09,-0.56a4.69,4.69 0 0 0 -1.13,-2.62l4.32,-9.1a11.57,11.57 0 0 0 1.44,0.33l0,0c-1.13,3.5 -2.06,7.67 -2.06,7.67l-3.34,7.35a1.41,1.41 0 0 1 0.58,0.42l-1.57,0.47z" fill="url(#0894c1c3-008a-4fd9-8eb6-3f5e53f78262)" id="svg_57"/>
  <path d="m784.610001,590.770006s-5.61,0.69 -8.34,-0.25s0.84,4 4.53,5.21a34.77,34.77 0 0 0 8,1.36l4.33,-4.08l4.6,0.36l-0.8,4.51l1.43,0.13l0.55,-5.9l-14.3,-1.34z" fill="#444053" id="svg_58"/>
  <path d="m784.610001,590.770006s-5.61,0.69 -8.34,-0.25s0.84,4 4.53,5.21a34.77,34.77 0 0 0 8,1.36l4.33,-4.08l4.6,0.36l-0.8,4.51l1.43,0.13l0.55,-5.9l-14.3,-1.34z" opacity="0.1" id="svg_59"/>
  <path d="m776.510001,601.080006s-6.74,1.47 -10.15,0.64s1.48,4.8 6.09,5.81a42.63,42.63 0 0 0 9.87,0.74l4.8,-5.44l5.62,-0.09l-0.46,5.57l1.76,0l0,-7.23l-17.53,0z" fill="#444053" id="svg_60"/>
  <path d="m776.510001,601.080006s-6.74,1.47 -10.15,0.64s1.48,4.8 6.09,5.81a42.63,42.63 0 0 0 9.87,0.74l4.8,-5.44l5.62,-0.09l-0.46,5.57l1.76,0l0,-7.23l-17.53,0z" opacity="0.1" id="svg_61"/>
  <path d="m801.410001,472.950006s11.53,12.82 4.62,27.3c0,0 -0.37,2.59 -0.1,3.05s-1.1,6.46 -1.1,6.46s-0.19,10.88 0,12.73s0.37,2.85 0.37,2.85s2.58,20.11 1.75,26.11s-1.2,16.7 -1.2,16.7l-3.41,28.78l-17.71,-3.32l8,-39.49l0.28,-7s-3.32,-8.57 -1.85,-12.91s-0.37,-59.59 -0.37,-59.59l10.72,-1.67z" fill="#444053" id="svg_62"/>
  <path d="m801.410001,472.950006s11.53,12.82 4.62,27.3c0,0 -0.37,2.59 -0.1,3.05s-1.1,6.46 -1.1,6.46s-0.19,10.88 0,12.73s0.37,2.85 0.37,2.85s2.58,20.11 1.75,26.11s-1.2,16.7 -1.2,16.7l-3.41,28.78l-17.71,-3.32l8,-39.49l0.28,-7s-3.32,-8.57 -1.85,-12.91s-0.37,-59.59 -0.37,-59.59l10.72,-1.67z" opacity="0.02" id="svg_63"/>
  <path d="m792.930001,534.940006c-2,3.87 -0.74,13.28 -0.74,13.28c2.67,2.31 1.2,22.42 1.2,22.42s1.84,19.83 3,22.14s1,11.8 1,11.8c-13.56,2.49 -22.42,-2.86 -22.42,-2.86s4.34,-9.87 4.43,-10.33c0.05,-0.26 0.63,0.44 0.8,0.65l-0.8,-1.11c-1.85,-2.58 0,-7.56 0,-7.56s-2.31,-16 -1.2,-17.53s-0.18,-6.92 -0.83,-8.21a18.08,18.08 0 0 1 -1.48,-5.63a11.47,11.47 0 0 0 -0.55,-2.95c-2.86,-4.06 -2.31,-10.79 -2.31,-10.79a89.18,89.18 0 0 0 -1.47,-17.34c-1.66,-7.66 2.07,-29.34 2.07,-29.34s-1.24,-4.24 -0.32,-5.81c0.42,-0.7 0.36,-2.36 0.18,-4c-0.22,-2 -0.64,-3.86 -0.64,-3.86l25.19,-4.44c0.53,0.88 1,1.73 1.46,2.55c8.33,15.39 2.71,21.1 2.71,21.1l-5.35,16.42s-1.9,17.52 -3.93,21.4z" fill="#444053" id="svg_64"/>
  <path d="m753.040001,414.560006l-3.6,3s-0.71,-0.56 -1.65,-1.41c-2.26,-2 -5.9,-5.71 -4.53,-7.27a2.72,2.72 0 0 1 3.86,-0.65c-0.2,-0.22 -4.38,-4.69 -2.66,-4.33s5,4.24 5,4.24l2.58,4.57l1,1.85z" fill="#efb7b9" id="svg_65"/>
  <polygon points="801.23 464.38 796.99 465.67 800.21 471.29 803.9 466.5 801.23 464.38" fill="#efb7b9" id="svg_66"/>
  <circle cx="791.27" cy="399.44" r="12.08" fill="#efb7b9" id="svg_67"/>
  <path d="m784.160001,403.850006s11,17.43 0.56,18.91s14,12.08 14,12.08l9.13,-9.22s-9.5,-16.42 -8,-22.69s-15.69,0.92 -15.69,0.92z" fill="#efb7b9" id="svg_68"/>
  <path d="m799.530001,476.020006a56.54,56.54 0 0 1 -7.43,1.73s-13.6,6 -18.55,4c-0.22,-2 -0.64,-3.86 -0.64,-3.86l25.13,-4.42c0.56,0.88 1.05,1.73 1.49,2.55z" opacity="0.1" id="svg_69"/>
  <path d="m812.040001,430.420006l-2.46,5.09l-2.77,5.72l-0.4,0.82l-3.29,7.11l-4.18,9s1.48,1.75 1,3.14s-1.11,0.73 -1.19,0.65c0.07,0.11 1,1.31 0.17,1.84a1.75,1.75 0 0 0 -0.55,1.75s3.41,5.63 4.06,7.66s-10.33,3.78 -10.33,3.78s-15.59,6.92 -19.47,3.5s0,-19.46 0,-19.46s0,-9.22 1,-10.05s0.55,-7.2 0.55,-7.2c-2.67,-4.89 -0.83,-7.66 -0.83,-7.66l-0.74,-12.54s1.2,-1.29 2.12,-1.38a8.73,8.73 0 0 1 1.76,0s0.48,-0.17 1.19,-0.36c1.48,-0.42 3.93,-1 4.8,-0.57c1.29,0.65 9.6,-1 9.6,-1a102.19,102.19 0 0 1 10.79,-1a11,11 0 0 1 3.66,0.4a4.9,4.9 0 0 1 3.53,3.11a6.43,6.43 0 0 0 1.11,4.24c1.5,2.4 0.87,3.41 0.87,3.41z" fill="#ff6484" id="svg_70"/>
  <path d="m753.040001,414.560006l-3.6,3s-0.71,-0.56 -1.65,-1.41c-0.29,-3.11 2.36,-3.52 4.23,-3.44l1.02,1.85z" opacity="0.1" id="svg_71"/>
  <path d="m774.200001,423.510006l-1.57,0.09s-3.69,0.46 -4.89,-0.65s-5.44,-1.47 -5.44,-1.47s-1.2,-2.4 -2.49,-3.14s-4.43,-2.12 -4.52,-2.86a6.66,6.66 0 0 0 -1.2,-2.12s-6.92,-1.66 -5.9,3.78s6.64,10.15 6.64,10.15s0.65,3 2.77,3.78s15.86,7.2 18.08,5.54s-1.48,-13.1 -1.48,-13.1z" fill="#ff6484" id="svg_72"/>
  <path d="m811.190001,426.980006a6.43,6.43 0 0 1 -1.11,-4.24a4.9,4.9 0 0 0 -3.53,-3.11a9.46,9.46 0 0 0 -1.79,-0.35a4.9,4.9 0 0 1 3.48,3.09a6.35,6.35 0 0 0 1.11,4.24c1.47,2.4 0.83,3.42 0.83,3.42l-2.46,5.08l-2.78,5.74l-0.39,0.82l-3.29,7.11l-4.18,9s1.47,1.75 1,3.14s-1.1,0.73 -1.19,0.65c0.08,0.11 1,1.31 0.18,1.84a1.77,1.77 0 0 0 -0.56,1.75s3.42,5.63 4.06,7.66s-10.33,3.78 -10.33,3.78s-10.83,4.8 -16.68,4.43c5,1.95 18.53,-4.06 18.53,-4.06s11,-1.75 10.33,-3.78s-4.06,-7.66 -4.06,-7.66a1.75,1.75 0 0 1 0.55,-1.75c0.8,-0.53 -0.1,-1.73 -0.17,-1.84c0.08,0.08 0.76,0.64 1.19,-0.65s-1,-3.14 -1,-3.14l4.18,-9l3.29,-7.11l0.4,-0.82l2.77,-5.72l2.46,-5.09s0.64,-1.03 -0.84,-3.43z" opacity="0.1" id="svg_73"/>
  <path d="m810.360001,429.040006l1.66,1.38a7.61,7.61 0 0 0 1.39,2.5c0.92,1 3.41,11.06 3.41,11.06a1.79,1.79 0 0 0 0,1.48c0.37,0.74 -0.74,1.85 -0.74,1.85s-0.55,-0.19 0.37,0.83s-0.83,2.21 -0.83,2.21s-7.56,12.91 -9.13,14.3s-3.14,5 -3.14,5s-3.28,-5.16 -4.06,-5.26l3.23,-7.29s2.21,-10.14 3.87,-12s-0.83,-8.21 -0.83,-8.21l4.8,-7.85z" fill="#ff6484" id="svg_74"/>
  <path d="m811.420001,447.850006c-1.38,1.66 -3.82,2 -6,1.77c-0.32,0 -0.63,-0.08 -0.95,-0.14c-0.47,-0.09 -0.94,-0.2 -1.4,-0.33a14.59,14.59 0 0 1 -4.58,-2.25a2.88,2.88 0 0 0 -1,-0.59a2.16,2.16 0 0 0 -2.18,1.17c-0.47,0.75 -0.69,1.63 -1.17,2.38a5.49,5.49 0 0 1 -4.53,2.22a16,16 0 0 1 -5.14,-1a15.28,15.28 0 0 0 3.3,-5.47a13.24,13.24 0 0 0 0.26,-4.12c-0.4,-6.53 -2.67,-13.41 -8,-17.21c-0.92,-0.66 -2,-1.44 -2.34,-2.43c1.48,-0.42 3.93,-1 4.8,-0.57c1.29,0.65 9.6,-1 9.6,-1a102.19,102.19 0 0 1 10.79,-1a11,11 0 0 1 3.66,0.4a23,23 0 0 0 -0.3,8.26a18.8,18.8 0 0 0 1.82,4.86c0.48,0.91 1,1.82 1.49,2.73c1.41,2.52 2.75,5.05 3,7.89a6.09,6.09 0 0 1 -1.13,4.43z" opacity="0.1" id="svg_75"/>
  <path d="m793.180001,460.850006a6.36,6.36 0 0 1 2.16,-0.19a4,4 0 0 1 1.62,0.94l-4.74,0c-1.22,0 -3.06,0.07 -4,-0.79c0.82,-0.83 3.76,0.18 4.96,0.04z" opacity="0.1" id="svg_76"/>
  <path d="m776.750001,398.020006a7.14,7.14 0 0 0 -0.82,6.94c0.76,1.79 2.22,3.18 3.12,4.9a8.85,8.85 0 0 1 -0.3,8.55a4.1,4.1 0 0 0 -0.74,1.53c-0.22,1.41 1.24,2.42 2.4,3.24c5.32,3.8 7.59,10.68 8,17.21a12.94,12.94 0 0 1 -0.25,4.12a15.19,15.19 0 0 1 -3.3,5.47a16.24,16.24 0 0 0 5.14,1a5.53,5.53 0 0 0 4.53,-2.23c0.48,-0.74 0.7,-1.62 1.17,-2.38a2.15,2.15 0 0 1 2.18,-1.17a3,3 0 0 1 1,0.59a14.48,14.48 0 0 0 6.93,2.72c2.15,0.25 4.59,-0.11 6,-1.77a6.14,6.14 0 0 0 1.13,-4.46c-0.48,-5.59 -5.21,-10 -6.3,-15.48c-0.89,-4.45 0.71,-9 1,-13.52c0.44,-6.7 -2,-13.23 -4.39,-19.5a21.74,21.74 0 0 0 -2.1,-4.44a12.44,12.44 0 0 0 -9,-5a8.53,8.53 0 0 0 -3.89,0.39a11.94,11.94 0 0 0 -3.34,2.28c-2.28,2 -4.63,4 -6,6.78c-0.54,1.12 -0.89,2.32 -1.49,3.4" fill="#925978" id="svg_77"/>
  <g opacity="0.1" id="svg_78">
   <path d="m778.930001,395.580006c0.59,-1.09 1,-2.29 1.48,-3.4a14,14 0 0 1 1.92,-2.89a16.27,16.27 0 0 0 -3.39,4.46c-0.52,1.09 -0.87,2.25 -1.44,3.31l0.73,-0.62a7.68,7.68 0 0 0 -0.51,0.8a8.61,8.61 0 0 0 1.21,-1.66z" id="svg_79"/>
   <path d="m807.300001,446.950006a14.55,14.55 0 0 1 -6.93,-2.73a3.37,3.37 0 0 0 -1,-0.59a2.19,2.19 0 0 0 -2.18,1.18a4.59,4.59 0 0 0 -0.26,0.49a1.53,1.53 0 0 1 1,-0.09a3,3 0 0 1 1,0.59a14.48,14.48 0 0 0 6.93,2.72c2.15,0.25 4.59,-0.11 6,-1.77a4,4 0 0 0 0.46,-0.69a7.71,7.71 0 0 1 -5.02,0.89z" id="svg_80"/>
   <path d="m791.450001,449.410006a16.22,16.22 0 0 1 -5.13,-1a15.35,15.35 0 0 0 3.29,-5.48a12.88,12.88 0 0 0 0.26,-4.11c-0.4,-6.53 -2.66,-13.42 -8,-17.21c-1.16,-0.83 -2.61,-1.84 -2.4,-3.25a4.45,4.45 0 0 1 0.75,-1.53a8.83,8.83 0 0 0 0.3,-8.54c-0.9,-1.72 -2.36,-3.12 -3.13,-4.9a7.21,7.21 0 0 1 0.32,-6.15a9.71,9.71 0 0 1 -0.81,0.76a8.86,8.86 0 0 1 -0.67,0.82a7.15,7.15 0 0 0 -0.31,6.14c0.76,1.79 2.22,3.18 3.12,4.9a8.85,8.85 0 0 1 -0.3,8.55a4.1,4.1 0 0 0 -0.74,1.53c-0.22,1.41 1.24,2.42 2.4,3.24c5.32,3.8 7.59,10.68 8,17.21a12.94,12.94 0 0 1 -0.25,4.12a15.19,15.19 0 0 1 -3.3,5.47a16.24,16.24 0 0 0 5.14,1a5.53,5.53 0 0 0 4.53,-2.23c0.06,-0.1 0.12,-0.2 0.17,-0.3a6.28,6.28 0 0 1 -3.24,0.96z" id="svg_81"/>
  </g>
  <path d="m71.040001,568.570006a14.11,14.11 0 0 1 -5.82,-2.13l-0.18,-0.13a1.93,1.93 0 0 0 0.3,-0.69a3.38,3.38 0 0 1 -0.38,-1.54a3.54,3.54 0 0 0 -0.3,-1.48l0,-2.5a4.6,4.6 0 0 1 -0.84,-2.87c-0.07,-2.07 -0.15,-12.23 -0.15,-12.23a4.76,4.76 0 0 1 -0.07,-1.62c0.07,-1.18 0.07,-1.62 0.07,-1.62a4.46,4.46 0 0 1 -0.22,-2.14a2.75,2.75 0 0 0 -0.54,-1.91l1.14,-5.6s0.63,-19.32 -1.21,-25.15l0,0s0,0 0,-0.07c0.15,-3.75 -2.13,-10 -0.84,-14.36s1.45,-5.3 1.45,-5.3s-5.7,-14.29 -7.14,-17.68a43.88,43.88 0 0 0 -3,-6.36q-0.14,-0.19 -0.27,-0.36l-0.15,-0.18a3.87,3.87 0 0 0 0.55,-1.7c0.08,-1 -0.07,-2.26 0.7,-3a6.17,6.17 0 0 1 0.94,-0.63a3.74,3.74 0 0 0 1.66,-3.6a6.07,6.07 0 0 0 -1.51,-2.93a9,9 0 0 0 0.13,-1.48a8.24,8.24 0 0 0 -2.61,-6l0,0l0,-0.46a4.72,4.72 0 0 0 -0.91,-2.84l0.21,0.15l-0.36,-0.31a2.67,2.67 0 0 0 -0.59,-0.46a11.16,11.16 0 0 0 -11.6,-0.6a6.36,6.36 0 0 0 -2.26,2c-1.19,1.84 -0.89,4.21 -1.51,6.3s-2,3.63 -3.17,5.37s-2.14,3.8 -1.7,5.83c0.32,1.48 1.36,2.8 1.34,4.3a3.39,3.39 0 0 1 -3,3.16l0,0l-0.45,0a11,11 0 0 0 4.9,1.56c0,0.14 -0.08,0.27 -0.11,0.41c-1.36,5.28 -2.61,12 -2.61,12s0.84,6.78 -0.91,12.08s-1.52,16.21 -1.52,16.21s4.86,-2.51 5.17,-0.89s0,2.06 0,2.06a22.93,22.93 0 0 0 2.16,1l0,0.65l-0.22,2.9a3.21,3.21 0 0 0 0.27,1.76c0.42,0.81 0,3 0,3s-0.36,0.22 0,1.26a4.27,4.27 0 0 1 -0.28,2.5s-0.43,5.52 -0.51,6.7a23.28,23.28 0 0 1 -1.52,4.49s1.3,1.62 0,1.85s-1.44,2.2 -1.44,2.2s-1.52,1.26 -1.52,1.7a34.87,34.87 0 0 0 -8.57,18.26s-1.6,1.47 -1.37,2.87c0.13,0.79 -0.13,1.06 -0.38,1.15c0.28,0 0.59,0.22 0.45,0.91c-0.22,1.18 -0.83,3.68 -0.83,3.68l0.11,0l0,0c-1.25,1.44 -3.06,3.85 -3.34,6l0,0.26l-0.7,1.53l6,2.65l0.53,-0.81s2.66,3 5.7,3.68a7.75,7.75 0 0 0 1.59,0.18a14.2,14.2 0 0 0 4.94,-1s2.2,-2.72 -3.5,-3.24c0,0 -3.34,-3.83 -3,-5.45a19.14,19.14 0 0 0 0.21,-2.06c0,-0.15 0,-0.3 0,-0.44l0.39,0.06l0.07,-1.24a1,1 0 0 0 0.23,-0.74c0,-0.51 -0.46,-0.59 0,-0.88s0.45,0 0.45,-0.73s-0.3,-0.52 0.38,-1.26s-0.07,-2.06 -0.07,-2.06a3.75,3.75 0 0 0 1.49,-2.66c-0.07,-1.54 5.09,-11.34 6.15,-11.71s1.14,-2.29 1.14,-2.29s1.45,0.3 1.9,0a17,17 0 0 0 1.9,-2.58s5.77,-14.58 5.85,-20.1l0.38,-1.25s2.2,2.87 1.89,4.93s1.69,3.54 1.69,3.54l0,6.26a18.38,18.38 0 0 1 0.36,3.31c-0.07,1 0.9,2.06 0.53,2.95a5,5 0 0 0 0,2.43s-0.08,2.06 0,2.65s-0.3,7.36 1.68,10.31c0,0 0.83,2.13 0,3.53s0.75,2.8 0.75,2.8s-1,1.62 0,2.8a3.57,3.57 0 0 1 0.71,2.61c-0.4,1.5 -0.69,3.46 0,4.83l0,0l0.18,2.11l5.82,-0.45l0,-1.17a21.67,21.67 0 0 0 7.67,0.48a7.27,7.27 0 0 0 5.08,-2.77s2.34,-4.05 -4.03,-2.5z" fill="url(#60f358e9-30c7-45a8-81a4-1235e6b38863)" id="svg_82"/>
  <path d="m73.980001,571.110006a7,7 0 0 1 -4.94,2.74a20.12,20.12 0 0 1 -7.41,-0.49l0,1.18l-5.62,0.44l-0.17,-2.1l0,0c-0.65,-1.38 -0.35,-3.38 0.05,-4.88a15.74,15.74 0 0 1 0.69,-2.08s4.84,-4.11 6.45,-1a5,5 0 0 0 1.42,1.62a13.43,13.43 0 0 0 5.62,2.12c6.18,-1.58 3.91,2.45 3.91,2.45z" fill="#ff6484" id="svg_83"/>
  <path d="m59.040001,567.080006s0,3.81 2.78,3.74s3.16,-1.52 2.28,-2.5a11.78,11.78 0 0 1 -1.54,-2.27l-3.52,1.03z" opacity="0.1" id="svg_84"/>
  <path d="m35.040001,578.590006a13.36,13.36 0 0 1 -4.76,1a7.9,7.9 0 0 1 -1.54,-0.17c-2.93,-0.66 -5.5,-3.67 -5.5,-3.67l-0.51,0.81l-5.8,-2.64l0.66,-1.54l0,-0.27c0.27,-2.1 2,-4.51 3.22,-5.94c0.69,-0.8 1.23,-1.32 1.23,-1.32l7,1s0,0.9 0,2a16.92,16.92 0 0 1 -0.2,2.06c-0.29,1.61 2.93,5.42 2.93,5.42c5.4,0.52 3.27,3.26 3.27,3.26z" fill="#ff6484" id="svg_85"/>
  <path d="m21.110001,561.550006a0.69,0.69 0 0 1 -0.36,0a1,1 0 0 1 0.36,0z" fill="#444053" id="svg_86"/>
  <path d="m28.960001,565.910006s0,0.9 0,2l-8.19,-1.31s0,-0.16 0.09,-0.42c0.64,-0.81 1.18,-1.33 1.18,-1.33l6.92,1.06z" opacity="0.1" id="svg_87"/>
  <path d="m64.470001,566.500006c-1.24,2.87 -8.61,2.19 -8.61,2.19a3.3,3.3 0 0 0 0.05,-0.7a15.74,15.74 0 0 1 0.69,-2.08s4.84,-4.11 6.45,-1a5,5 0 0 0 1.42,1.59z" opacity="0.1" id="svg_88"/>
  <path d="m64.590001,565.690006c-0.73,3.29 -8.73,2.56 -8.73,2.56a3.74,3.74 0 0 0 -0.66,-2.78c-1,-1.18 0,-2.79 0,-2.79s-1.54,-1.39 -0.73,-2.79s0,-3.52 0,-3.52c-1.9,-2.93 -1.54,-9.68 -1.62,-10.26s0,-2.64 0,-2.64a5.1,5.1 0 0 1 0,-2.42c0.36,-0.88 -0.58,-1.91 -0.5,-2.93a19.23,19.23 0 0 0 -0.31,-3.27l0,-6.23a4.19,4.19 0 0 1 -1.62,-3.52c0.29,-2.06 -1.84,-4.91 -1.84,-4.91l-0.36,1.24c-0.08,5.5 -5.65,20 -5.65,20a17.23,17.23 0 0 1 -1.83,2.56c-0.44,0.3 -1.83,0 -1.83,0s-0.08,1.91 -1.1,2.27s-6,10.12 -5.94,11.66a3.78,3.78 0 0 1 -1.47,2.72s0.73,1.32 0.07,2.05s-0.36,0.51 -0.36,1.25s0,0.44 -0.44,0.73s0,0.37 0,0.88a1.06,1.06 0 0 1 -0.22,0.73l-0.07,1.23l-8.58,-1.37s0.58,-2.5 0.8,-3.67c0.13,-0.69 -0.17,-0.87 -0.44,-0.91c0.24,-0.09 0.49,-0.36 0.37,-1.14c-0.22,-1.4 1.32,-2.86 1.32,-2.86a35.13,35.13 0 0 1 8.14,-18.26c0,-0.44 1.46,-1.69 1.46,-1.69s0.15,-2 1.4,-2.2s0,-1.83 0,-1.83a24.09,24.09 0 0 0 1.46,-4.47c0.08,-1.17 0.49,-6.67 0.49,-6.67a4.37,4.37 0 0 0 0.27,-2.49c-0.34,-1 0,-1.25 0,-1.25s0.42,-2.2 0,-3a3.31,3.31 0 0 1 -0.25,-1.76l0.2,-2.88l0.31,-4.3s22.8,-3.89 25.29,-0.74a3.8,3.8 0 0 1 0.59,1.29c1.78,5.8 1.17,25 1.17,25l-1.1,5.57a2.75,2.75 0 0 1 0.52,1.9a4.57,4.57 0 0 0 0.22,2.13s0,0.44 -0.08,1.61a4.87,4.87 0 0 0 0.08,1.62s0.07,10.11 0.14,12.17a4.72,4.72 0 0 0 0.81,2.86l0,2.49a3.62,3.62 0 0 1 0.29,1.47a3.45,3.45 0 0 0 0.33,1.56z" fill="#444053" id="svg_89"/>
  <path d="m30.280001,579.570006a7.9,7.9 0 0 1 -1.54,-0.17c-2.93,-0.66 -5.5,-3.67 -5.5,-3.67l-0.51,0.81l-5.8,-2.64l0.66,-1.54l0,-0.27l6,3s4.8,2.33 6.69,4.48z" opacity="0.1" id="svg_90"/>
  <path d="m69.040001,573.850006a20.12,20.12 0 0 1 -7.41,-0.49l0,1.18l-5.62,0.44l-0.17,-2.1c1.78,0 4.65,0.07 5.89,0a27.32,27.32 0 0 1 7.31,0.97z" opacity="0.1" id="svg_91"/>
  <path d="m23.980001,559.660006a2.27,2.27 0 0 1 0.86,0.11a6.81,6.81 0 0 1 0.82,0.59a4,4 0 0 1 0.55,0.36c0.21,0.21 0.3,0.52 0.51,0.73c0.4,0.39 1,0.31 1.56,0.49c0.06,0 0.12,0 0.13,0.11a0.15,0.15 0 0 1 -0.09,0.14a0.88,0.88 0 0 1 -0.85,0a3.28,3.28 0 0 1 -0.7,-0.54a4.68,4.68 0 0 0 -1.38,-0.85c-0.69,-0.28 -1.89,-0.35 -2.33,-1a2,2 0 0 1 0.92,-0.14z" opacity="0.1" id="svg_92"/>
  <path d="m23.390001,561.200006a2.14,2.14 0 0 1 0.44,0.18l0.75,0.38a2.77,2.77 0 0 1 -1.53,-0.34a3.17,3.17 0 0 1 -0.49,-0.23a2.31,2.31 0 0 1 0.83,0.01z" opacity="0.1" id="svg_93"/>
  <path d="m24.390001,562.490006a1.91,1.91 0 0 1 0.48,0a2.39,2.39 0 0 1 0.78,0.47a3.07,3.07 0 0 0 1.94,0.67a0.85,0.85 0 0 1 -0.42,0.07l-1.58,0a1.82,1.82 0 0 1 -0.52,0a2.54,2.54 0 0 1 -0.65,-0.24c-0.27,-0.12 -1.38,-0.44 -1.39,-0.81s1.09,-0.16 1.36,-0.16z" opacity="0.1" id="svg_94"/>
  <path d="m60.250001,564.360006a8.79,8.79 0 0 0 1.45,0a2.82,2.82 0 0 0 1.44,-0.46c0.42,-0.32 0.33,-0.66 -0.2,-0.68a3.81,3.81 0 0 0 -1.45,0.35a4.83,4.83 0 0 0 -0.68,0.35c-0.1,0.1 -0.46,0.45 -0.56,0.44z" opacity="0.1" id="svg_95"/>
  <path d="m62.040001,565.160006c0,0.18 -0.23,0.28 -0.4,0.34a4.39,4.39 0 0 1 -1.29,0.29c-0.11,0 -0.42,0 -0.38,-0.17s0.5,-0.12 0.61,-0.14a10.57,10.57 0 0 0 1.46,-0.32z" opacity="0.1" id="svg_96"/>
  <path d="m57.620001,564.850006a3,3 0 0 1 1.76,0.35a0.07,0.07 0 0 1 0,0a0.06,0.06 0 0 1 0,0a0.61,0.61 0 0 1 -0.6,0.32a2.51,2.51 0 0 1 -0.69,-0.18a4.05,4.05 0 0 0 -1.15,-0.17a3,3 0 0 1 -0.52,0c-0.52,-0.09 -0.35,-0.29 0,-0.34a10.38,10.38 0 0 1 1.2,0.02z" opacity="0.1" id="svg_97"/>
  <path d="m37.470001,536.060006a4.55,4.55 0 0 0 -2.5,-0.82a3.57,3.57 0 0 1 2.5,0.82z" opacity="0.1" id="svg_98"/>
  <path d="m36.790001,533.100006a3.66,3.66 0 0 1 1.87,0.53l-0.62,-0.18a6.14,6.14 0 0 0 -1.26,-0.26c-0.24,0 -0.49,0 -0.73,0s-0.56,-0.07 -0.84,-0.08c0.49,0 1.04,-0.03 1.58,-0.01z" opacity="0.1" id="svg_99"/>
  <path d="m39.040001,534.510006c0.21,0 0.46,0.13 0.5,0.34a9.3,9.3 0 0 0 -1.63,-0.6c-0.31,-0.1 -1.26,-0.52 -1.48,-0.23c0.79,0.23 1.7,0.31 2.61,0.49z" opacity="0.1" id="svg_100"/>
  <path d="m41.040001,528.000006a6.16,6.16 0 0 0 2.52,-1.62a2,2 0 0 1 -0.93,1.64a5,5 0 0 1 -1.84,0.69a8.25,8.25 0 0 0 -1.89,0.57c-0.29,0.14 -1.19,1 -1.48,1s0.22,-0.63 0.35,-0.73a12.47,12.47 0 0 1 3.27,-1.55z" opacity="0.1" id="svg_101"/>
  <path d="m59.040001,537.510006c-0.31,-0.11 -4.1,0.62 -3.87,-0.11c0.15,-0.45 1.38,-0.28 1.68,-0.27a7.74,7.74 0 0 1 2.19,0.38z" opacity="0.1" id="svg_102"/>
  <path d="m54.910001,449.850006a8.48,8.48 0 0 1 -0.2,1.83a8.38,8.38 0 1 1 0.2,-1.83z" fill="#fbbebe" id="svg_103"/>
  <path d="m50.880001,453.290006s-2.71,7.92 -1.17,9.53s-11.07,2.57 -11.07,2.57s5.27,-9.46 4.76,-11.81s7.48,-0.29 7.48,-0.29z" fill="none" stroke="#669100" stroke-miterlimit="10" id="svg_104"/>
  <path d="m62.170001,507.290006a5,5 0 0 1 0,0.55c-0.15,3.74 -6.82,11.29 -8.36,10s-12,-3.74 -12,-3.74s-1.54,-2.42 -3.15,-2.42a8.27,8.27 0 0 1 -2.66,-0.68l0.31,-4.3s22.8,-3.89 25.29,-0.74a3.8,3.8 0 0 1 0.57,1.33z" opacity="0.1" id="svg_105"/>
  <path d="m62.170001,507.180006c-0.07,1.87 -1.78,4.7 -3.67,6.9s-3.92,3.76 -4.69,3.14a7.41,7.41 0 0 0 -1.82,-0.86c-3.47,-1.27 -10.2,-2.88 -10.2,-2.88s-1.54,-2.42 -3.15,-2.42s-4.7,-1.61 -4.7,-1.61s0.3,-0.44 0,-2.05s-5,0.88 -5,0.88s-0.22,-10.85 1.46,-16.13s0.88,-12 0.88,-12s1.21,-6.64 2.52,-11.9c0.79,-3.15 1.62,-5.8 2.25,-6.21c1.69,-1.1 10.48,0 10.48,0a34.57,34.57 0 0 1 5.06,0.44a2.29,2.29 0 0 1 1.06,0.86l0.26,0.37a41.54,41.54 0 0 1 2.93,6.33c1.4,3.37 6.9,17.59 6.9,17.59s-0.15,1 -1.4,5.28s0.98,10.53 0.83,14.27z" fill="#65617d" id="svg_106"/>
  <path d="m55.870001,511.500006l2.63,2.58s2.42,8.35 -0.73,7.61s-5.78,-5.33 -5.78,-5.33l3.88,-4.86z" fill="#fbbebe" id="svg_107"/>
  <path d="m62.540001,488.260006c-6.24,-0.07 -7.85,-8.8 -7.85,-8.8s-0.44,-8.65 -1.25,-10.26a16.66,16.66 0 0 1 -0.73,-4.86a41.54,41.54 0 0 1 2.93,6.33c1.4,3.37 6.9,17.59 6.9,17.59z" opacity="0.1" id="svg_108"/>
  <path d="m62.760001,487.600006c-6.24,-0.07 -7.85,-8.8 -7.85,-8.8s-0.44,-8.65 -1.25,-10.26a16.66,16.66 0 0 1 -0.73,-4.86a41.54,41.54 0 0 1 2.93,6.33c1.4,3.37 6.9,17.59 6.9,17.59z" fill="#65617d" id="svg_109"/>
  <path d="m51.590001,466.080006s-1.83,-5 -4.83,0a25.35,25.35 0 0 0 -3.08,11.29l-0.52,13.78a8.17,8.17 0 0 1 0.92,2.86c0,1 1.8,4 1.8,4s0.44,5.79 2.12,6.75l1.62,4.76s0.07,3.15 1.17,4.4a3.68,3.68 0 0 1 0.52,3.17l6.52,-2.28s-0.74,0.27 0,-1.7s-0.44,-4.54 -0.44,-4.54s-4.18,-9.09 -4.7,-10.41s-1.24,-2.86 -1,-4.4s0.06,-17.89 0.44,-20.38s-0.54,-7.3 -0.54,-7.3z" opacity="0.1" id="svg_110"/>
  <path d="m52.270001,465.390006s-1.83,-5 -4.84,0a25.51,25.51 0 0 0 -3.08,11.29l-0.51,13.78a8.31,8.31 0 0 1 0.92,2.86c0,1 1.79,4 1.79,4s0.44,5.79 2.13,6.74l1.61,4.77s0.08,3.15 1.18,4.4a3.68,3.68 0 0 1 0.52,3.17l6.51,-2.28s-0.73,0.27 0,-1.71s-0.46,-4.56 -0.46,-4.56s-4.17,-9.09 -4.69,-10.41s-1.24,-2.86 -1,-4.4s0.06,-17.89 0.43,-20.39s-0.51,-7.26 -0.51,-7.26z" fill="#ff6484" id="svg_111"/>
  <path d="m52.400001,508.500006a2.55,2.55 0 0 1 0.8,0.24c0.2,0.1 0.37,0.26 0.57,0.37a1.5,1.5 0 0 0 0.75,0.2a8.64,8.64 0 0 1 -0.88,0a1.39,1.39 0 0 1 -0.54,-0.07a2.22,2.22 0 0 1 -0.46,-0.29a2.79,2.79 0 0 0 -0.58,-0.33c-0.16,-0.06 -0.33,-0.08 -0.39,-0.24a4.53,4.53 0 0 1 0.73,0.12z" opacity="0.1" id="svg_112"/>
  <path d="m54.880001,510.470006c0.28,0 0.55,-0.06 0.83,-0.08a7,7 0 0 1 1.21,0.06a3.32,3.32 0 0 1 -1.91,0.34a1.1,1.1 0 0 0 -0.57,0c-0.2,0.08 -0.8,0.76 -0.85,0.16s0.95,-0.47 1.29,-0.48z" opacity="0.1" id="svg_113"/>
  <path d="m51.510001,441.050006l-1.07,-0.78a1.66,1.66 0 0 1 0.33,0.15a2.27,2.27 0 0 1 0.6,0.47l0.34,0.31l-0.2,-0.15z" opacity="0.1" id="svg_114"/>
  <path d="m52.670001,463.310006a2.62,2.62 0 0 1 -0.9,1.09a1.81,1.81 0 0 1 -0.79,0.3a3,3 0 0 1 -1.18,-0.12a14.24,14.24 0 0 1 -1.44,-0.47a26.18,26.18 0 0 0 -2.83,-1a4.52,4.52 0 0 0 -4.22,0.86c-0.93,0.94 -1.15,2.4 -2.07,3.34c-1.24,1.26 -3.26,1.18 -5,0.93l-0.41,-0.06c0.79,-3.15 1.62,-5.8 2.25,-6.21c1.69,-1.1 10.48,0 10.48,0a34.57,34.57 0 0 1 5.06,0.44a2.29,2.29 0 0 1 1.05,0.9z" opacity="0.1" id="svg_115"/>
  <path d="m38.200001,449.850006a8.35,8.35 0 0 1 14.19,-6l0,0c0,1.45 -0.29,3 0.12,4.35a10.72,10.72 0 0 0 2.2,3.44a8.36,8.36 0 0 1 -16.51,-1.79z" opacity="0.1" id="svg_116"/>
  <path d="m51.710001,440.760006a10.42,10.42 0 0 0 -12.12,-1.36a6.22,6.22 0 0 0 -2.18,2c-1.15,1.83 -0.86,4.2 -1.46,6.27s-1.93,3.62 -3.06,5.35s-2.07,3.78 -1.64,5.8c0.31,1.47 1.32,2.79 1.3,4.29a3.32,3.32 0 0 1 -3.22,3.16a10.83,10.83 0 0 0 4.9,1.58c1.75,0.25 3.77,0.33 5,-0.93c0.92,-0.94 1.14,-2.4 2.07,-3.34a4.52,4.52 0 0 1 4.22,-0.86c1.46,0.34 2.81,1 4.27,1.43a3,3 0 0 0 1.18,0.12c1.25,-0.17 2,-1.56 2.08,-2.82c0.08,-1 -0.07,-2.25 0.67,-3a5.88,5.88 0 0 1 0.91,-0.63a3.78,3.78 0 0 0 1.61,-3.59c-0.35,-2.48 -3,-4 -3.74,-6.44c-0.41,-1.4 -0.1,-2.9 -0.12,-4.35s-0.58,-3.12 -1.95,-3.61" fill="#444053" id="svg_117"/>
  <path d="m56.110001,454.230006c-0.34,-2.48 -3,-4 -3.74,-6.44c-0.41,-1.4 -0.09,-2.9 -0.12,-4.35a4.71,4.71 0 0 0 -0.88,-2.83l0.21,0.15c-0.11,-0.11 -0.23,-0.21 -0.35,-0.31a2.8,2.8 0 0 0 -0.57,-0.46l-0.38,-0.26l0.2,0.19l-0.21,-0.15a4.69,4.69 0 0 1 0.88,2.83c0,1.45 -0.29,3 0.12,4.34c0.71,2.41 3.4,4 3.74,6.45a3.79,3.79 0 0 1 -1.61,3.59a5.88,5.88 0 0 0 -0.91,0.63c-0.74,0.74 -0.59,2 -0.67,3c-0.1,1.26 -0.82,2.65 -2.07,2.82a3.2,3.2 0 0 1 -1.19,-0.12c-1.45,-0.38 -2.81,-1.09 -4.27,-1.43a4.5,4.5 0 0 0 -4.22,0.86c-0.92,0.93 -1.15,2.4 -2.07,3.34c-1.24,1.25 -3.26,1.18 -5,0.93a15.32,15.32 0 0 1 -3.36,-0.77a2.17,2.17 0 0 1 -0.44,0a10.9,10.9 0 0 0 4.9,1.58c1.75,0.25 3.77,0.33 5,-0.93c0.92,-0.94 1.15,-2.4 2.07,-3.34a4.52,4.52 0 0 1 4.22,-0.86c1.46,0.34 2.82,1 4.27,1.43a3,3 0 0 0 1.19,0.12c1.25,-0.17 2,-1.56 2.07,-2.82c0.08,-1 -0.07,-2.25 0.67,-3a5.88,5.88 0 0 1 0.91,-0.63a3.78,3.78 0 0 0 1.61,-3.56z" opacity="0.1" id="svg_118"/>
  <path d="m88.290001,573.660006c1.6,5.33 -19.91,8.78 -45.24,7.8c-22.71,-0.87 -40.52,-5.05 -41.83,-9.42s14.17,-7.93 36.61,-8c25.03,0 48.86,4.29 50.46,9.62z" fill="#669100" opacity="0.1" id="svg_119"/>
 </g>
</svg>